<svg width="24" height="25" viewBox="0 0 24 25" fill="none" xmlns="http://www.w3.org/2000/svg">
<g id="Iconly/Bulk/Shield Done">
<g id="Shield Done">
<path id="Fill 1" opacity="0.4" d="M12.0865 22.0117C11.9627 22.0117 11.8388 21.9833 11.7271 21.9254L8.12599 20.0613C7.10415 19.5318 6.30481 18.9376 5.68063 18.2453C4.31449 16.7312 3.5544 14.7877 3.54232 12.7716L3.50004 6.13598C3.495 5.37014 3.98931 4.68275 4.72826 4.42387L11.3405 2.11851C11.7331 1.97828 12.1711 1.97632 12.5707 2.11164L19.2081 4.33856C19.9511 4.58665 20.4535 5.26914 20.4575 6.034L20.4998 12.6745C20.5129 14.6877 19.779 16.6391 18.434 18.1698C17.8168 18.8719 17.0245 19.4749 16.0128 20.0143L12.4439 21.9205C12.3331 21.9803 12.2103 22.0107 12.0865 22.0117Z" fill="#8A92A6"/>
<path id="Fill 4" d="M11.3189 14.3307C11.1256 14.3317 10.9323 14.262 10.7833 14.1189L8.86646 12.2754C8.57048 11.989 8.56746 11.5242 8.86042 11.2359C9.15338 10.9467 9.63158 10.9437 9.92857 11.2291L11.3078 12.5548L14.6753 9.23456C14.9693 8.94528 15.4475 8.94234 15.7435 9.22769C16.0405 9.51403 16.0435 9.9798 15.7505 10.2671L11.8514 14.112C11.7045 14.2571 11.5122 14.3297 11.3189 14.3307Z" fill="#8A92A6"/>
</g>
</g>
</svg>
