<svg width="16" height="21" viewBox="0 0 16 21" fill="none" xmlns="http://www.w3.org/2000/svg">
<g id="Bookmark">
<path id="Bookmark 2" opacity="0.4" d="M7.99118 16.6315L1.49945 19.874C1.00921 20.1402 0.397683 19.9625 0.123484 19.4743C0.0434041 19.3208 0.00105752 19.1502 0 18.9768V11.7188C0 12.4383 0.405733 12.8825 1.47299 13.38L7.99118 16.6315Z" fill="#8A92A6"/>
<path id="Bookmark_2" fill-rule="evenodd" clip-rule="evenodd" d="M4.89526 0.0117188H11.0695C13.7773 0.0117188 15.9735 1.07777 16 3.80509V18.9786C15.9989 19.1491 15.9565 19.3168 15.8765 19.4672C15.7479 19.7124 15.5259 19.8944 15.2615 19.9715C14.997 20.0485 14.7128 20.014 14.4741 19.8758L7.99118 16.6332L1.47299 13.3818C0.405733 12.8843 0 12.4401 0 11.7205V3.80509C0 1.07777 2.19625 0.0117188 4.89526 0.0117188ZM4.22492 7.63399H11.7486C12.1822 7.63399 12.5336 7.28 12.5336 6.84333C12.5336 6.40667 12.1822 6.05268 11.7486 6.05268H4.22492C3.79137 6.05268 3.43991 6.40667 3.43991 6.84333C3.43991 7.28 3.79137 7.63399 4.22492 7.63399Z" fill="#8A92A6"/>
</g>
</svg>
