<svg width="24" height="25" viewBox="0 0 24 25" fill="none" xmlns="http://www.w3.org/2000/svg">
<g id="Game">
<path id="Game 2" opacity="0.4" d="M13.5664 4.67059V4.89024C12.9776 4.87868 12.3888 4.87868 11.8 4.87868V4.68215C11.8 3.88448 11.1288 3.23709 10.328 3.23709H9.16216C7.83145 3.23709 6.74805 2.17353 6.74805 0.878755C6.74805 0.404775 7.14844 0.0117188 7.63126 0.0117188C8.12586 0.0117188 8.51447 0.404775 8.51447 0.878755C8.51447 1.22557 8.80887 1.50302 9.16216 1.50302H10.328C12.1062 1.51458 13.5547 2.93652 13.5664 4.67059Z" fill="#8A92A6"/>
<path id="Game_2" fill-rule="evenodd" clip-rule="evenodd" d="M15.7967 4.91088C16.1748 4.91606 16.5538 4.92126 16.9341 4.92515C21.0204 4.92515 23.9998 7.83839 23.9998 11.8614V17.029C23.9998 21.052 21.0204 23.9653 16.9341 23.9653C15.2972 23.9999 13.6603 24.0115 12.0117 24.0115C10.363 24.0115 8.70257 23.9999 7.06569 23.9653C2.97936 23.9653 0 21.052 0 17.029V11.8614C0 7.83839 2.97936 4.92515 7.07746 4.92515C8.62014 4.90203 10.1981 4.87891 11.7997 4.87891C12.3885 4.87891 12.9773 4.87891 13.5661 4.89047C14.3085 4.89047 15.0508 4.90065 15.7967 4.91088ZM11.1343 15.8103H9.89784V17.0357C9.89784 17.5097 9.49745 17.9027 9.01463 17.9027C8.52003 17.9027 8.13142 17.5097 8.13142 17.0357V15.8103H6.88314C6.40032 15.8103 5.99993 15.4288 5.99993 14.9432C5.99993 14.4693 6.40032 14.0762 6.88314 14.0762H8.13142V12.8624C8.13142 12.3884 8.52003 11.9953 9.01463 11.9953C9.49745 11.9953 9.89784 12.3884 9.89784 12.8624V14.0762H11.1343C11.6172 14.0762 12.0175 14.4693 12.0175 14.9432C12.0175 15.4288 11.6172 15.8103 11.1343 15.8103ZM16.1387 13.858H16.2565C16.7393 13.858 17.1397 13.4765 17.1397 12.991C17.1397 12.517 16.7393 12.1239 16.2565 12.1239H16.1387C15.6442 12.1239 15.2555 12.517 15.2555 12.991C15.2555 13.4765 15.6442 13.858 16.1387 13.858ZM18.1528 17.8332H18.2706C18.7534 17.8332 19.1538 17.4517 19.1538 16.9661C19.1538 16.4921 18.7534 16.0991 18.2706 16.0991H18.1528C17.6582 16.0991 17.2696 16.4921 17.2696 16.9661C17.2696 17.4517 17.6582 17.8332 18.1528 17.8332Z" fill="#8A92A6"/>
</g>
</svg>
