<svg width="24" height="25" viewBox="0 0 24 25" fill="none" xmlns="http://www.w3.org/2000/svg">
<g id="Iconly/Bulk/3 User">
<g id="3 User">
<path id="Fill 1" d="M11.9488 14.5508C8.49884 14.5508 5.58789 15.1145 5.58789 17.2903C5.58789 19.4669 8.51765 20.0109 11.9488 20.0109C15.3988 20.0109 18.3098 19.4471 18.3098 17.2714C18.3098 15.0947 15.38 14.5508 11.9488 14.5508Z" fill="white"/>
<path id="Fill 3" opacity="0.4" d="M11.9495 12.4787C14.2856 12.4787 16.1588 10.5948 16.1588 8.24523C16.1588 5.89478 14.2856 4.01172 11.9495 4.01172C9.61342 4.01172 7.74023 5.89478 7.74023 8.24523C7.74023 10.5948 9.61342 12.4787 11.9495 12.4787Z" fill="white"/>
<path id="Fill 6" opacity="0.4" d="M21.0886 9.23144C21.693 6.85397 19.9209 4.71875 17.6645 4.71875C17.4192 4.71875 17.1846 4.74577 16.9554 4.7917C16.9249 4.7989 16.8909 4.81421 16.873 4.84123C16.8524 4.87545 16.8676 4.92138 16.89 4.95109C17.5678 5.90748 17.9573 7.0719 17.9573 8.32187C17.9573 9.51961 17.6001 10.6363 16.9733 11.563C16.9088 11.6584 16.9661 11.7872 17.0798 11.807C17.2374 11.8349 17.3986 11.8494 17.5634 11.8539C19.2064 11.8971 20.6811 10.8335 21.0886 9.23144Z" fill="white"/>
<path id="Fill 8" d="M22.8094 14.8282C22.5086 14.1834 21.7824 13.7412 20.6783 13.5242C20.1572 13.3963 18.747 13.2162 17.4352 13.2405C17.4155 13.2432 17.4048 13.2567 17.403 13.2657C17.4003 13.2783 17.4057 13.2999 17.4316 13.3135C18.0378 13.6151 20.3811 14.9272 20.0865 17.6947C20.074 17.8144 20.1698 17.918 20.2888 17.9C20.8655 17.8171 22.3492 17.4965 22.8094 16.4978C23.0637 15.9701 23.0637 15.3568 22.8094 14.8282Z" fill="white"/>
<path id="Fill 11" opacity="0.4" d="M7.04508 4.7917C6.81675 4.74487 6.58126 4.71875 6.33592 4.71875C4.0795 4.71875 2.3075 6.85397 2.91279 9.23144C3.31931 10.8335 4.79403 11.8971 6.4371 11.8539C6.60185 11.8494 6.76392 11.834 6.92061 11.807C7.03433 11.7872 7.09164 11.6584 7.02717 11.563C6.40039 10.6354 6.04312 9.51961 6.04312 8.32187C6.04312 7.071 6.43352 5.90658 7.11134 4.95109C7.13283 4.92138 7.14894 4.87545 7.12745 4.84123C7.10954 4.81331 7.07642 4.7989 7.04508 4.7917Z" fill="white"/>
<path id="Fill 13" d="M3.32156 13.5234C2.21752 13.7405 1.49225 14.1826 1.19139 14.8274C0.936203 15.3561 0.936203 15.9694 1.19139 16.498C1.65163 17.4958 3.13531 17.8173 3.71195 17.8992C3.83104 17.9173 3.92595 17.8146 3.91342 17.6939C3.61883 14.9274 5.9621 13.6153 6.56918 13.3136C6.59425 13.2992 6.59962 13.2785 6.59694 13.265C6.59515 13.256 6.5853 13.2425 6.5656 13.2407C5.25294 13.2155 3.84358 13.3956 3.32156 13.5234Z" fill="white"/>
</g>
</g>
</svg>
